<?xml version="1.0" encoding="UTF-8"?>
<svg style="background-color: #2196F3" width="64px" height="64px" viewBox="0 0 64 64" version="1.1" xmlns="http://www.w3.org/2000/svg" xmlns:xlink="http://www.w3.org/1999/xlink">
  <path d="M40.1918305,15.4930481 C48.4912316,16.5059148 54.75,23.6020055 54.75,32.0003227 C54.75,40.3975642 48.4912316,47.4940852 40.1918305,48.5069519 L27.9264008,50.0034474 C27.2611122,50.0847693 26.5945383,50.125 25.9322484,50.125 C21.9109576,50.125 17.9948363,48.6508788 14.9524151,45.9440205 C11.4077075,42.7907522 9.375,38.2526447 9.375,33.4968182 L9.375,30.5027515 C9.375,25.7473553 11.4077075,21.2088175 14.9524151,18.0553341 C17.9967641,15.3474001 21.9152415,13.875 25.9365323,13.875 C26.5988222,13.875 27.2628257,13.9152307 27.9264008,13.9961223 L40.1918305,15.4930481 Z M39.4950552,42.7485853 C44.9004721,42.0891893 48.9757399,37.4678236 48.9757399,32.0003227 C48.9757399,26.5317461 44.9004721,21.909735 39.4950552,21.2507693 L27.2296255,19.754489 C26.7967381,19.7007046 26.3627797,19.674673 25.9316058,19.674673 C23.3122191,19.674673 20.7624457,20.6337553 18.7820017,22.3970212 C16.4725548,24.4505073 15.1486175,27.4056341 15.1486175,30.5027515 L15.1486175,33.4968182 C15.1486175,36.5945811 16.4725548,39.5490624 18.7820017,41.6023334 C20.7618031,43.3643084 23.3105056,44.3259724 25.9286071,44.325327 C26.3614945,44.325327 26.7954529,44.2988651 27.2296255,44.2457262 L39.4950552,42.7485853 Z M28.6877148,28.75 C30.5858369,28.75 32.125,30.2893298 32.125,32.1878222 C32.125,34.085885 30.5858369,35.625 28.6877148,35.625 C26.7885186,35.625 25.25,34.085885 25.25,32.1878222 C25.25,30.2893298 26.7885186,28.75 28.6877148,28.75 Z M41.9378222,28.75 C43.8361735,28.75 45.375,30.2893298 45.375,32.1878222 C45.375,34.085885 43.8361735,35.625 41.9378222,35.625 C40.0394708,35.625 38.5,34.085885 38.5,32.1878222 C38.5,30.2893298 40.0394708,28.75 41.9378222,28.75 Z" id="Combined-Shape" fill="#FFFFFF"></path>
</svg>
